<svg width="800" height="500" viewBox="0 0 800 500" xmlns="http://www.w3.org/2000/svg">
  <defs>
    <path id="body" d="M71.6,18.5C65.8,15.8,59.6,13.8,53.1,12.6c-0.1,0-0.2,0-0.2,0.1c-0.8,1.5-1.8,3.4-2.4,4.9
      c-7-1-13.9-1-20.7,0c-0.7-1.6-1.6-3.4-2.5-4.9c-0.1-0.1-0.2-0.1-0.2-0.1c-6.5,1.2-12.7,3.2-18.5,5.9
      c0,0-0.1,0-0.1,0.1C1.2,30.2-0.7,41.6,0.2,52.8c0,0.1,0.1,0.1,0.1,0.2c7.8,5.7,15.3,9.2,22.7,11.5
      c0.1,0,0.2,0,0.2-0.1c1.7-2.4,3.3-4.9,4.6-7.5c0.1-0.1,0-0.3-0.1-0.3c-2.5-0.9-4.8-2.1-7.1-3.4
      c-0.2-0.1-0.2-0.3,0-0.4c0.5-0.4,0.9-0.7,1.4-1.1c0.1-0.1,0.2-0.1,0.3,0c14.9,6.8,31,6.8,45.7,0
      c0.1,0,0.2,0,0.3,0c0.5,0.4,0.9,0.8,1.4,1.1c0.2,0.1,0.1,0.4,0,0.4c-2.3,1.3-4.6,2.5-7.1,3.4
      c-0.2,0.1-0.2,0.2-0.1,0.3c1.4,2.6,2.9,5.1,4.6,7.5c0.1,0.1,0.2,0.1,0.2,0.1c7.4-2.3,15-5.8,22.8-11.5
      c0.1-0.1,0.1-0.1,0.1-0.2C90.6,39.7,85.5,28.4,71.6,18.5z"/>
    <clipPath id="clip1">
      <use href="#body" transform="translate(60,50) scale(4.8)"/>
    </clipPath>
    <mask id="eye-mask">
      <rect width="800" height="500" fill="white"/>
      <ellipse cx="205.4" cy="237.7" rx="30.7" ry="34.1" fill="black"/>
      <ellipse cx="348.5" cy="237.7" rx="30.7" ry="34.1" fill="black"/>
      <ellipse cx="455.4" cy="287.7" rx="30.7" ry="34.1" fill="black"/>
      <ellipse cx="598.5" cy="287.7" rx="30.7" ry="34.1" fill="black"/>
    </mask>
  </defs>
  <g mask="url(#eye-mask)">
    <use href="#body" fill="#FF0000" transform="translate(60,50) scale(4.8)"/>
    <use href="#body" fill="#FFFF00" transform="translate(310,100) scale(4.8)"/>
    <g clip-path="url(#clip1)">
      <use href="#body" fill="#FF8800" transform="translate(310,100) scale(4.8)"/>
    </g>
  </g>
</svg>
